<?xml version="1.0" encoding="UTF-8"?>
<svg xmlns="http://www.w3.org/2000/svg" xmlns:xlink="http://www.w3.org/1999/xlink" width="2251" height="2326" viewBox="0 0 2251 2326">
<path fill-rule="nonzero" fill="rgb(0%, 0%, 0%)" fill-opacity="1" d="M 1190.78125 1.570312 C 1018.050781 9.929688 830.800781 43.898438 664.761719 97.460938 C 516.304688 145.269531 341.613281 226.800781 234.175781 298.121094 C 140.414062 360.570312 73.160156 427.199219 36.046875 494.089844 C -3.300781 565.160156 -9.996094 646.160156 17.628906 713.050781 C 26.558594 735 65.628906 795.609375 78.742188 808.148438 L 86.554688 815.730469 L 94.371094 804.230469 C 162.738281 702.859375 216.039062 640.929688 292.5 574.308594 C 477.792969 412.308594 745.6875 286.628906 1003.808594 240.121094 C 1043.160156 233.070312 1097.578125 225.75 1141.941406 221.308594 C 1188.269531 216.871094 1340.910156 216.871094 1376.359375 221.308594 C 1505.839844 237.769531 1606.570312 277.75 1677.460938 340.980469 C 1705.078125 365.539062 1715.691406 381.738281 1725.730469 413.871094 C 1731.308594 432.160156 1732.148438 440.53125 1732.148438 481.808594 C 1732.148438 530.929688 1729.640625 550.269531 1717.921875 592.859375 C 1680.53125 728.980469 1575.878906 836.109375 1402.859375 915.539062 C 1339.519531 944.539062 1270.871094 970.148438 1254.960938 970.148438 C 1248.820312 970.148438 1230.691406 967.539062 1214.5 964.140625 C 1061.300781 933.050781 942.144531 998.109375 889.960938 1141.558594 C 881.867188 1163.238281 868.472656 1211.058594 868.472656 1217.589844 C 868.472656 1220.199219 873.214844 1223.070312 881.867188 1225.691406 L 894.980469 1229.609375 L 894.980469 1243.449219 C 894.980469 1257.039062 894.980469 1257.300781 906.144531 1261.480469 C 914.796875 1264.621094 927.632812 1265.398438 961.957031 1265.398438 C 1004.648438 1265.398438 1023.070312 1263.050781 1080.828125 1250.511719 C 1082.511719 1250.25 1095.339844 1274.550781 1109.300781 1304.859375 C 1185.761719 1467.636719 1265.570312 1614.738281 1336.730469 1722.910156 C 1451.421875 1897.972656 1550.480469 2007.1875 1650.390625 2068.328125 C 1801.078125 2160.824219 1952.609375 2134.171875 2119.480469 1985.761719 C 2215.199219 1900.585938 2260.960938 1810.703125 2248.96875 1732.054688 C 2246.171875 1712.980469 2243.378906 1708.800781 2236.128906 1712.980469 C 2231.109375 1715.855469 2230.550781 1715.074219 2227.480469 1697.304688 C 2223.570312 1674.835938 2222.730469 1671.960938 2219.660156 1671.960938 C 2218.269531 1671.960938 2207.109375 1682.933594 2194.550781 1696.261719 C 2142.089844 1752.957031 2087.671875 1795.546875 2036.320312 1819.585938 C 1967.949219 1851.984375 1907.960938 1853.03125 1845.730469 1823.765625 C 1743.039062 1774.90625 1631.410156 1647.398438 1508.910156 1438.109375 C 1464.820312 1362.339844 1356.820312 1151.21875 1356.820312 1140.25 C 1356.820312 1137.890625 1360.171875 1134.761719 1364.628906 1133.191406 C 1407.609375 1115.941406 1526.488281 1062.378906 1573.089844 1039.128906 C 1791.03125 930.960938 1914.101562 837.421875 1983.578125 727.160156 C 2030.738281 652.171875 2054.460938 566.460938 2054.460938 472.140625 C 2054.460938 395.058594 2041.070312 340.449219 2006.179688 276.699219 C 1977.71875 224.441406 1954.839844 193.351562 1920.789062 161.480469 C 1822.011719 69.238281 1660.710938 16.980469 1427.980469 2.351562 C 1390.308594 0 1233.480469 -0.519531 1190.78125 1.570312 Z M 1190.78125 1.570312 "/>
<path fill-rule="nonzero" fill="rgb(0%, 0%, 0%)" fill-opacity="1" d="M 772.199219 408.648438 C 740.941406 414.140625 699.644531 424.589844 656.109375 437.648438 C 601.414062 454.109375 547.558594 472.660156 547.558594 475.28125 C 547.558594 476.320312 551.742188 483.378906 557.046875 490.691406 C 576.578125 517.609375 579.648438 529.359375 579.371094 573.261719 C 579.089844 617.941406 576.300781 636.75 548.953125 765.308594 C 516.582031 918.679688 394.632812 1494.546875 355.007812 1681.105469 C 333.519531 1781.699219 309.242188 1897.449219 300.59375 1938.472656 C 291.941406 1979.492188 276.871094 2048.734375 267.105469 2092.628906 C 243.386719 2198.449219 238.921875 2227.972656 243.386719 2246.265625 C 245.617188 2255.671875 249.804688 2263.769531 255.945312 2270.039062 C 260.964844 2275.265625 267.386719 2284.671875 269.894531 2290.683594 C 276.316406 2305.3125 290.265625 2316.289062 309.523438 2321.515625 C 346.078125 2331.441406 432.863281 2320.992188 506.816406 2297.738281 C 538.628906 2287.808594 609.507812 2260.375 613.972656 2256.191406 C 614.808594 2255.410156 612.578125 2242.867188 609.230469 2228.496094 C 599.183594 2187.734375 601.414062 2145.667969 617.601562 2062.582031 C 620.671875 2046.644531 692.109375 1709.847656 776.382812 1314 C 937.121094 559.671875 938.234375 554.191406 938.234375 537.199219 C 938.234375 517.871094 932.375 494.871094 924.285156 481.808594 C 919.816406 474.488281 912.84375 462.210938 908.933594 454.371094 C 897.773438 432.949219 886.609375 421.449219 869.03125 413.351562 C 854.796875 406.820312 849.773438 406.039062 822.425781 405.519531 C 805.683594 405.25 783.082031 406.558594 772.199219 408.648438 Z M 772.199219 408.648438 "/>
</svg>
